<svg width="21" height="21" viewBox="0 0 21 21" fill="none" xmlns="http://www.w3.org/2000/svg">
<path d="M14.264 0.362228H6.28636C3.04419 0.362228 0.406494 2.99992 0.406494 6.24209V14.2197C0.406494 17.4619 3.04419 20.0996 6.28636 20.0996H14.264C17.5062 20.0996 20.1438 17.4619 20.1438 14.2197V6.24209C20.1438 2.99992 17.5061 0.362228 14.264 0.362228ZM18.1583 14.2197C18.1583 16.3705 16.4147 18.114 14.264 18.114H6.28636C4.13562 18.114 2.39207 16.3705 2.39207 14.2197V6.24209C2.39207 4.09132 4.13562 2.34781 6.28636 2.34781H14.264C16.4147 2.34781 18.1583 4.09132 18.1583 6.24209V14.2197Z" fill="white" fill-opacity="0.5"/>
<path d="M10.2759 5.12613C7.46114 5.12613 5.17114 7.41613 5.17114 10.2309C5.17114 13.0456 7.46114 15.3357 10.2759 15.3357C13.0907 15.3357 15.3807 13.0457 15.3807 10.2309C15.3807 7.41609 13.0907 5.12613 10.2759 5.12613ZM10.2759 13.3501C8.55322 13.3501 7.15672 11.9536 7.15672 10.2309C7.15672 8.50821 8.55326 7.11171 10.2759 7.11171C11.9986 7.11171 13.3951 8.50821 13.3951 10.2309C13.3951 11.9536 11.9986 13.3501 10.2759 13.3501Z" fill="white" fill-opacity="0.5"/>
<path d="M15.3904 6.38756C16.066 6.38756 16.6136 5.83992 16.6136 5.16438C16.6136 4.48884 16.066 3.94121 15.3904 3.94121C14.7149 3.94121 14.1672 4.48884 14.1672 5.16438C14.1672 5.83992 14.7149 6.38756 15.3904 6.38756Z" fill="white" fill-opacity="0.5"/>
</svg>
