<svg width="20" height="21" viewBox="0 0 20 21" fill="none" xmlns="http://www.w3.org/2000/svg">
<path d="M9.27512 0.0175629C8.12684 0.114044 6.85132 0.478184 5.77131 1.01973C3.82544 1.99388 2.29544 3.53758 1.34578 5.47966C-0.050778 8.33052 -0.010433 11.5113 1.4544 14.4835L1.68716 14.9535L0.827501 17.5118C0.181982 19.4383 -0.0228468 20.0826 0.00198091 20.1199C0.0206017 20.1479 0.0640501 20.1728 0.101292 20.1791C0.150947 20.1884 0.166464 20.2102 0.166464 20.2818C0.166464 20.3658 0.175775 20.3751 0.237844 20.3533C0.45819 20.2849 2.24578 19.7122 3.72303 19.2391L5.42993 18.6914L5.87994 18.903C7.6458 19.7496 9.44581 20.0546 11.3234 19.8243C14.1227 19.4819 16.6427 17.9195 18.21 15.548C19.4793 13.6308 20.1155 11.253 19.9324 9.0837C19.7648 7.07315 19.0324 5.22133 17.7817 3.65273C16.5527 2.10903 14.8024 0.938805 12.8876 0.378592C12.4779 0.257212 11.7424 0.104708 11.3079 0.048687C10.951 0.00200272 9.69719 -0.0166721 9.27512 0.0175629ZM11.2613 2.11526C13.0613 2.38603 14.5945 3.15476 15.87 4.43703C17.1114 5.67884 17.85 7.15096 18.061 8.80982C18.1262 9.32646 18.1293 10.3193 18.0641 10.8328C17.8438 12.5913 17.0524 14.2034 15.7924 15.4701C14.8614 16.4101 13.8434 17.0419 12.6113 17.4496C11.7951 17.7172 11.1 17.8262 10.1596 17.8262C9.38685 17.8293 8.94305 17.7795 8.28201 17.6176C7.38201 17.3998 6.78615 17.1446 5.77752 16.547C5.69993 16.5003 5.64407 16.5159 4.26303 16.9578C3.47475 17.2099 2.81682 17.4091 2.80441 17.3998C2.78889 17.3904 2.9813 16.7773 3.22648 16.0366C3.47165 15.299 3.67338 14.6578 3.67338 14.6174C3.67338 14.5769 3.59269 14.4151 3.49027 14.2595C2.38544 12.5384 1.96647 10.6616 2.24889 8.68533C2.41337 7.53066 2.80751 6.51605 3.46234 5.56991C4.82786 3.58738 6.97235 2.32067 9.38374 2.07168C9.75305 2.03434 10.892 2.05923 11.2613 2.11526Z" fill="white" fill-opacity="0.5"/>
<path d="M6.6061 5.00659C6.41368 5.07195 6.2523 5.18711 6.01334 5.43609C5.48575 5.99008 5.23747 6.56897 5.20334 7.34704C5.16299 8.24027 5.51058 9.22687 6.29575 10.4438C7.60852 12.4761 8.92749 13.6681 10.6716 14.3964C11.5654 14.7699 12.1489 14.9628 12.5337 15.0189C12.8223 15.0562 13.3934 14.9722 13.7472 14.8352C14.0668 14.7107 14.5137 14.4182 14.7123 14.2003C15.0165 13.8642 15.2803 13.1172 15.2803 12.585C15.2803 12.3641 15.2741 12.3361 15.1965 12.2489C15.0382 12.0746 13.0706 11.0445 12.8378 11.0133C12.6268 10.9853 12.543 11.0445 12.1954 11.4522C11.6554 12.084 11.4878 12.2489 11.3916 12.2489C11.2799 12.2489 10.532 11.8723 10.1751 11.6358C9.30301 11.0569 8.5768 10.2633 8.00886 9.25488C7.96231 9.17396 7.92507 9.09615 7.92507 9.07748C7.92507 9.05881 8.02438 8.93432 8.14542 8.8036C8.43714 8.48303 8.53335 8.33675 8.65749 8.03486C8.80025 7.69562 8.79404 7.60536 8.60473 7.09183C8.33162 6.34488 8.24473 6.11146 8.09576 5.70997C7.94059 5.29292 7.82266 5.1093 7.66438 5.04394C7.51852 4.98169 6.75817 4.9568 6.6061 5.00659Z" fill="white" fill-opacity="0.5"/>
</svg>
