<svg width="20" height="20" viewBox="0 0 20 20" fill="none" xmlns="http://www.w3.org/2000/svg">
<path d="M2.22222 0C0.994444 0 0 0.994444 0 2.22222V17.7778C0 19.0056 0.994444 20 2.22222 20H17.7778C19.0056 20 20 19.0056 20 17.7778V2.22222C20 0.994444 19.0056 0 17.7778 0H2.22222ZM2.22222 2.22222H17.7778V17.7778H2.22222V2.22222ZM9.7678 6.50825C9.11224 6.50269 8.55663 6.51116 8.24219 6.6645C8.0333 6.76672 7.87203 6.99622 7.97092 7.00955C8.09203 7.0251 8.36568 7.08299 8.51346 7.28299C8.70123 7.53965 8.69575 8.11632 8.69575 8.11632C8.69575 8.11632 8.80295 9.7024 8.44184 9.90017C8.19406 10.0357 7.85457 9.76049 7.12457 8.49827C6.75012 7.85049 6.46918 7.13542 6.46918 7.13542C6.46918 7.13542 6.41394 7.00036 6.31727 6.92925C6.19839 6.84259 6.03299 6.81424 6.03299 6.81424L4.28819 6.82292C4.28819 6.82292 4.02462 6.82349 3.92795 6.93793C3.8424 7.04016 3.92144 7.24175 3.92144 7.24175C3.92144 7.24175 5.28922 10.4298 6.83811 12.0443C8.25922 13.5243 9.86979 13.3898 9.86979 13.3898H10.6011C10.6011 13.3898 10.8231 13.4024 10.9353 13.2813C11.0387 13.169 11.0352 12.9948 11.0352 12.9948C11.0352 12.9948 11.0213 12.0129 11.4757 11.8685C11.9246 11.7263 12.4998 12.8168 13.1098 13.2357C13.5698 13.5535 13.9214 13.4852 13.9214 13.4852L15.5534 13.4635C15.5534 13.4635 16.4059 13.4099 16.0048 12.7344C15.9714 12.6788 15.7694 12.237 14.7917 11.3281C13.7672 10.377 13.9045 10.5301 15.1367 8.88455C15.8878 7.88344 16.1882 7.27177 16.0938 7.00955C16.0037 6.75844 15.4514 6.82509 15.4514 6.82509L13.6155 6.83594C13.6155 6.83594 13.4778 6.81606 13.3767 6.87717C13.2778 6.93717 13.214 7.07465 13.214 7.07465C13.214 7.07465 12.9236 7.85128 12.5347 8.51128C11.7181 9.90351 11.391 9.97599 11.2565 9.88932C10.9454 9.68932 11.0243 9.0824 11.0243 8.65017C11.0243 7.30129 11.2272 6.73844 10.625 6.59288C10.425 6.54399 10.2789 6.5138 9.7678 6.50825Z" fill="white" fill-opacity="0.5"/>
</svg>
