<svg width="275" height="284" viewBox="0 0 275 284" fill="none" xmlns="http://www.w3.org/2000/svg">
<g clip-path="url(#clip0_52_51)">
<path d="M181.137 151.759L181.137 177.047L206.431 177.047L206.431 151.759L181.137 151.759Z" stroke="#5A6178" stroke-miterlimit="10"/>
<path d="M151 125.511L151 60.3725C151 56.2967 154.262 53 158.296 53L176 53L176 151" stroke="#5A6178" stroke-miterlimit="10"/>
<path d="M176 151L78 151L78 126L150.616 126" stroke="#5A6178" stroke-miterlimit="10"/>
<path d="M78 151L78 125.908L150.736 125.908C150.736 125.908 176 127.753 176 99L176 151L78 151V151Z" stroke="#5A6178" stroke-miterlimit="10"/>
<path d="M230.607 275.888L212.234 275.888L212.234 177.092L237.709 177.092L237.709 268.788C237.709 272.716 234.521 275.888 230.607 275.888V275.888Z" stroke="#5A6178" stroke-miterlimit="10"/>
<path d="M212.233 177.092L311.052 177.092L311.052 195.129C311.052 199.238 307.728 202.562 303.618 202.562L235.019 202.562" stroke="#5A6178" stroke-miterlimit="10"/>
<path d="M311.052 177.092L311.052 202.229C311.052 202.426 310.901 202.577 310.704 202.577L237.709 202.577C237.709 202.577 212.233 200.703 212.233 229.889L212.233 177.107L311.052 177.107L311.052 177.092Z" stroke="#5A6178" stroke-miterlimit="10"/>
<path d="M10.5769 -4.57725L10.5769 20.7108L35.8708 20.7108L35.8708 -4.57725L10.5769 -4.57725Z" stroke="#5A6178" stroke-miterlimit="10"/>
<path d="M67.1483 45.9536L67.1483 112.12C67.1483 116.229 63.8242 119.552 59.7143 119.552L41.6729 119.552L41.6728 20.7562" stroke="#5A6178" stroke-miterlimit="10"/>
<path d="M41.6729 20.7714L140.492 20.7714L140.492 46.1048C140.492 46.1048 140.431 46.2407 140.356 46.2407L67.1483 46.2407" stroke="#5A6178" stroke-miterlimit="10"/>
<path d="M140.492 20.7714L140.492 45.9084C140.492 46.1048 140.341 46.2558 140.144 46.2558L67.1483 46.2558C67.1483 46.2558 41.6729 44.3826 41.6729 73.5681L41.6728 20.7865L140.492 20.7865L140.492 20.7714Z" stroke="#5A6178" stroke-miterlimit="10"/>
<path d="M315.827 165.324L315.827 139.855L217.008 139.855L217.008 165.324L315.827 165.324Z" stroke="#5A6178" stroke-miterlimit="10"/>
<path d="M217.008 165.324L217.008 139.855L290.351 139.855C290.351 139.855 315.827 141.728 315.827 112.543L315.827 165.324L217.008 165.324V165.324Z" stroke="#5A6178" stroke-miterlimit="10"/>
<path d="M144.432 -16.0011L144.432 9.25781L169.659 9.25781L169.659 -16.0011L144.432 -16.0011Z" stroke="#5A6178" stroke-miterlimit="10"/>
<path d="M200.852 34.1093L200.852 100.576C200.852 104.681 197.537 108 193.438 108L175.445 108L175.445 9.31816" stroke="#5A6178" stroke-miterlimit="10"/>
<path d="M175.445 9.31817L274 9.31816L274 27.3343C274 31.4385 270.684 34.7582 266.586 34.7582L199.059 34.7582" stroke="#5A6178" stroke-miterlimit="10"/>
<path d="M274 9.31814L274 34.4262C274 34.6224 273.849 34.7733 273.653 34.7733L200.852 34.7733C200.852 34.7733 175.445 32.9022 175.445 62.0541L175.445 9.33324L274 9.33324L274 9.31814Z" stroke="#5A6178" stroke-miterlimit="10"/>
</g>
<defs>
<clipPath id="clip0_52_51">
<rect width="275" height="284" fill="white"/>
</clipPath>
</defs>
</svg>
