<svg width="603" height="584" viewBox="0 0 603 584" fill="none" xmlns="http://www.w3.org/2000/svg">
<g clip-path="url(#clip0_85_761)">
<path d="M280.78 384.669L227.087 384.669L227.087 438.385L280.78 438.385L280.78 384.669Z" stroke="#E7E7E7" stroke-miterlimit="10"/>
<path d="M336.044 320.055L475.472 320.055C484.196 320.055 491.253 327.115 491.253 335.843L491.253 374.156L281.486 374.156" stroke="#E7E7E7" stroke-miterlimit="10"/>
<path d="M281.518 374.155L281.518 164.3L335.595 164.3L335.595 319.799" stroke="#E7E7E7" stroke-miterlimit="10"/>
<path d="M281.518 164.3L335.595 164.3L335.595 320.055C335.595 320.055 331.618 374.155 393.586 374.155L281.518 374.155L281.518 164.3V164.3Z" stroke="#E7E7E7" stroke-miterlimit="10"/>
<path d="M17.224 489.726L17.224 450.707L226.991 450.707L226.991 504.807L32.2988 504.807C23.9595 504.807 17.224 498.036 17.224 489.726V489.726Z" stroke="#E7E7E7" stroke-miterlimit="10"/>
<path d="M226.991 450.707L226.991 660.561L188.694 660.561C179.97 660.561 172.914 653.502 172.914 644.774L172.914 499.095" stroke="#E7E7E7" stroke-miterlimit="10"/>
<path d="M226.991 660.561L173.619 660.561C173.202 660.561 172.881 660.24 172.881 659.823L172.881 504.807C172.881 504.807 176.859 450.707 114.891 450.707L226.959 450.707L226.959 660.561L226.991 660.561Z" stroke="#E7E7E7" stroke-miterlimit="10"/>
<path d="M612.719 22.4614L559.026 22.4614L559.026 76.1766L612.719 76.1766L612.719 22.4614Z" stroke="#E7E7E7" stroke-miterlimit="10"/>
<path d="M505.43 142.598L364.943 142.598C356.219 142.598 349.163 135.539 349.163 126.811L349.163 88.4978L558.93 88.4978" stroke="#E7E7E7" stroke-miterlimit="10"/>
<path d="M558.898 88.4978L558.898 298.353L505.109 298.353C505.109 298.353 504.82 298.225 504.82 298.064L504.82 142.598" stroke="#E7E7E7" stroke-miterlimit="10"/>
<path d="M558.898 298.353L505.526 298.353C505.109 298.353 504.788 298.032 504.788 297.615L504.788 142.598C504.788 142.598 508.765 88.4978 446.797 88.4978L558.865 88.4978L558.865 298.353L558.898 298.353Z" stroke="#E7E7E7" stroke-miterlimit="10"/>
<path d="M251.977 670.701L306.055 670.701L306.055 460.846L251.977 460.846L251.977 670.701Z" stroke="#E7E7E7" stroke-miterlimit="10"/>
<path d="M251.977 460.846L306.055 460.846L306.055 616.601C306.055 616.601 302.077 670.702 364.045 670.702L251.977 670.702L251.977 460.846V460.846Z" stroke="#E7E7E7" stroke-miterlimit="10"/>
<path d="M636.325 308.172L582.633 308.172L582.633 361.887L636.325 361.887L636.325 308.172Z" stroke="#E7E7E7" stroke-miterlimit="10"/>
<path d="M529.806 428.309L388.518 428.309C379.794 428.309 372.738 421.25 372.738 412.522L372.738 374.209L582.504 374.209" stroke="#E7E7E7" stroke-miterlimit="10"/>
<path d="M582.504 374.209L582.504 584.064L544.208 584.064C535.483 584.064 528.427 577.004 528.427 568.276L528.427 424.491" stroke="#E7E7E7" stroke-miterlimit="10"/>
<path d="M582.504 584.064L529.132 584.064C528.715 584.064 528.395 583.744 528.395 583.326L528.395 428.309C528.395 428.309 532.372 374.209 470.404 374.209L582.472 374.209L582.472 584.064L582.504 584.064Z" stroke="#E7E7E7" stroke-miterlimit="10"/>
</g>
<defs>
<clipPath id="clip0_85_761">
<rect width="584" height="603" fill="white" transform="translate(603) rotate(90)"/>
</clipPath>
</defs>
</svg>
