<svg width="442" height="428" viewBox="0 0 442 428" fill="none" xmlns="http://www.w3.org/2000/svg">
<g clip-path="url(#clip0_85_729)">
<path d="M236.188 146.085L275.545 146.085L275.545 106.718L236.188 106.718L236.188 146.085Z" stroke="#E7E7E7" stroke-miterlimit="10"/>
<path d="M195.679 192.905L93.4783 192.905C87.0834 192.905 81.911 187.731 81.911 181.334L81.911 153.256L235.671 153.256" stroke="#E7E7E7" stroke-miterlimit="10"/>
<path d="M235.647 155.256L235.647 309.054L196.008 309.054L196.008 195.093" stroke="#E7E7E7" stroke-miterlimit="10"/>
<path d="M235.647 307.054L196.008 307.054L196.008 192.905C196.008 192.905 198.923 153.256 153.501 153.256L235.647 153.256L235.647 307.054V307.054Z" stroke="#E7E7E7" stroke-miterlimit="10"/>
<path d="M429.375 69.0914L429.375 97.6872L275.615 97.6872L275.615 58.0385L418.325 58.0385C424.438 58.0385 429.375 63.0006 429.375 69.0914V69.0914Z" stroke="#E7E7E7" stroke-miterlimit="10"/>
<path d="M275.615 97.6875L275.615 -56.1101L303.687 -56.1101C310.082 -56.1101 315.254 -50.9366 315.254 -44.5401L315.254 62.2245" stroke="#E7E7E7" stroke-miterlimit="10"/>
<path d="M275.615 -56.1101L314.737 -56.1101C315.043 -56.1101 315.278 -55.8749 315.278 -55.5692L315.278 58.0385C315.278 58.0385 312.362 97.6875 357.785 97.6875L275.639 97.6875L275.639 -56.1101L275.615 -56.1101Z" stroke="#E7E7E7" stroke-miterlimit="10"/>
<path d="M-7.12382 411.538L32.233 411.538L32.233 372.172L-7.12382 372.172L-7.12382 411.538Z" stroke="#E7E7E7" stroke-miterlimit="10"/>
<path d="M71.5192 323.493L174.496 323.493C180.891 323.493 186.063 328.666 186.063 335.063L186.063 363.142L32.3036 363.142" stroke="#E7E7E7" stroke-miterlimit="10"/>
<path d="M32.3271 363.142L32.3271 209.344L71.7545 209.344C71.7545 209.344 71.966 209.438 71.966 209.556L71.966 323.493" stroke="#E7E7E7" stroke-miterlimit="10"/>
<path d="M32.3271 209.344L71.4488 209.344C71.7545 209.344 71.9895 209.579 71.9895 209.885L71.9896 323.493C71.9896 323.493 69.0741 363.142 114.497 363.142L32.3507 363.142L32.3506 209.344L32.3271 209.344Z" stroke="#E7E7E7" stroke-miterlimit="10"/>
<path d="M257.3 -63.5416L217.661 -63.5416L217.661 90.2565L257.3 90.2565L257.3 -63.5416Z" stroke="#E7E7E7" stroke-miterlimit="10"/>
<path d="M257.3 90.2565L217.661 90.2565L217.661 -23.8926C217.661 -23.8926 220.577 -63.5416 175.154 -63.5416L257.3 -63.5416L257.3 90.2565V90.2565Z" stroke="#E7E7E7" stroke-miterlimit="10"/>
<path d="M-24.4276 202.148L14.9292 202.148L14.9292 162.781L-24.4276 162.781L-24.4276 202.148Z" stroke="#E7E7E7" stroke-miterlimit="10"/>
<path d="M53.437 114L156.49 114C162.853 114 168 119.089 168 125.381L168 153L15 153" stroke="#E7E7E7" stroke-miterlimit="10"/>
<path d="M15.0233 153.751L15.0233 -0.0470588L43.0948 -0.0470613C49.4897 -0.0470618 54.6622 5.12695 54.6622 11.5234L54.6622 116.9" stroke="#E7E7E7" stroke-miterlimit="10"/>
<path d="M15 7.93432e-07L54.041 -2.62134e-06C54.346 -2.64802e-06 54.5806 0.233896 54.5806 0.538024L54.5806 113.557C54.5806 113.557 51.6712 153 97 153L15.0235 153L15.0234 7.91378e-07L15 7.93432e-07Z" stroke="#E7E7E7" stroke-miterlimit="10"/>
</g>
<defs>
<clipPath id="clip0_85_729">
<rect width="428" height="442" fill="white" transform="translate(0 428) rotate(-90)"/>
</clipPath>
</defs>
</svg>
