<svg width="156" height="50" viewBox="0 0 156 50" fill="none" xmlns="http://www.w3.org/2000/svg">
<path d="M30.8923 29.2294V35.7491L37.727 28.7568C37.9458 28.5292 38.2434 28.4068 38.5584 28.4068H39.311V39.9848H36.8257V32.6424L29.6408 39.9848H28.3982V28.4068H30.0696C30.5246 28.4068 30.8923 28.7743 30.8923 29.2294Z" fill="#2E3242"/>
<path d="M51.808 28.4068V39.9848H49.3225C49.3225 39.9848 49.3138 39.9848 49.3138 39.976V34.7777H43.9667V39.9848H41.4814V28.4068H43.9667V32.5462H49.3138V29.5444C49.3138 28.9143 49.8214 28.4068 50.4515 28.4068H51.808Z" fill="#2E3242"/>
<path d="M61.8457 33.7363C62.8959 34.3139 63.7098 35.2503 63.7098 36.5104C63.7098 38.6108 62.1433 39.9848 60.0955 39.9848H54.0307V28.4068H58.9753C60.9793 28.4068 62.5808 29.7632 62.5808 31.8723C62.5808 32.5549 62.3095 33.1762 61.837 33.7276L61.8457 33.7363ZM56.5162 30.5684V33.1063H59.0015C59.6491 33.045 60.3142 32.5986 60.3142 31.8373C60.3142 31.0759 59.6053 30.5684 58.8265 30.5684H56.5162ZM59.7717 37.797C60.498 37.797 61.2681 37.3419 61.2681 36.4668C61.2681 35.6529 60.5593 35.1453 59.7804 35.1453H56.5162V37.8057H59.7717V37.797Z" fill="#2E3242"/>
<path d="M73.8525 28.4068V29.5094C73.8525 30.1307 73.3537 30.6296 72.7323 30.6296H67.9629V32.5374H72.3561V34.7689H67.9629V37.7532H72.6974C73.3363 37.7532 73.8613 38.2782 73.8613 38.9171V39.9848H65.4688V28.4068H73.8613H73.8525Z" fill="#2E3242"/>
<path d="M86.822 35.9242C86.1044 38.357 83.759 39.9848 81.0374 39.9848C77.7206 39.9848 74.964 37.5082 74.964 34.1914C74.964 30.8747 77.5981 28.3893 81.0374 28.3893C83.6715 28.3893 86.0519 29.912 86.822 32.4587L84.4504 33.1587C84.0303 31.6447 82.7001 30.5771 81.0374 30.5771C78.9633 30.5771 77.5456 32.1524 77.5456 34.1914C77.5456 36.2305 78.937 37.797 81.0374 37.797C82.7089 37.797 83.9953 36.7993 84.4504 35.2153L86.822 35.9242Z" fill="#2E3242"/>
<path d="M98.1901 28.398V30.6383H94.2694V39.9936H91.7753V30.6383H89.1149C88.4236 30.6383 87.8634 30.0783 87.8634 29.3869V28.398H98.1987H98.1901Z" fill="#2E3242"/>
<path d="M110.057 28.398V39.9848H107.563V30.6296H102.216V39.9848H99.7215V28.398H110.057Z" fill="#224C62"/>
<path d="M123.613 28.4068V39.9848H121.127V30.6383H117.452V36.2042C117.452 37.2543 117.067 38.147 116.314 38.8821C115.561 39.6172 114.634 39.9848 113.566 39.9848C112.892 39.9848 112.253 39.8272 111.658 39.5034L112.875 37.3943C113.085 37.5081 113.312 37.5607 113.557 37.5607C113.951 37.5607 114.284 37.4207 114.555 37.1581C114.826 36.8956 114.975 36.5717 114.975 36.1866V28.398H123.621L123.613 28.4068Z" fill="#224C62"/>
<path d="M141.833 34.1827C141.833 37.4119 139.234 39.9848 135.856 39.9848C132.968 39.9848 130.666 38.1907 129.975 35.3115H128.277V39.9848H125.783V28.398H128.277V33.08H129.975C130.552 30.3146 132.889 28.398 135.856 28.398C139.172 28.398 141.833 30.9009 141.833 34.1914V34.1827ZM132.425 34.1827C132.425 36.0817 133.694 37.797 135.856 37.797C137.851 37.797 139.286 36.2042 139.286 34.1827C139.286 32.2836 138.009 30.5771 135.856 30.5771C133.869 30.5771 132.425 32.1611 132.425 34.1827Z" fill="#224C62"/>
<path d="M155.152 35.9242C154.435 38.357 152.09 39.9848 149.368 39.9848C146.051 39.9848 143.294 37.5082 143.294 34.1914C143.294 30.8747 145.929 28.3893 149.368 28.3893C152.002 28.3893 154.382 29.912 155.152 32.4587L152.781 33.1587C152.361 31.6447 151.031 30.5771 149.368 30.5771C147.294 30.5771 145.876 32.1524 145.876 34.1914C145.876 36.2305 147.268 37.797 149.368 37.797C151.039 37.797 152.326 36.7993 152.781 35.2153L155.152 35.9242Z" fill="#224C62"/>
<path d="M28.3982 48.8587V44.3605H31.6536V45.2268H29.3695V48.8587H28.3982Z" fill="#224C62"/>
<path d="M34.5503 44.3692C35.3291 44.3692 35.9506 44.8942 35.9506 45.7169C35.9506 46.4782 35.3466 47.0471 34.5503 47.0471H33.1588V48.8674H32.1962V44.378H34.5503V44.3692ZM34.4277 46.1982C34.7078 46.1982 35.0053 46.0319 35.0053 45.7169C35.0053 45.4018 34.7253 45.2356 34.4277 45.2356H33.1588V46.1982H34.4277Z" fill="#224C62"/>
<path d="M37.3944 47.9222C37.5957 47.9222 37.7532 47.8347 38.0333 47.3621V47.3359L36.3794 44.3605H37.4207L38.5672 46.4083L39.7136 44.3605H40.755L38.9347 47.6159C38.6109 48.2023 38.1996 48.8587 37.4032 48.8587C37.1407 48.8587 36.8957 48.7973 36.6681 48.6748L37.1407 47.8522C37.2282 47.896 37.3157 47.9222 37.4032 47.9222H37.3944Z" fill="#224C62"/>
<path d="M45.3144 44.3605V48.8587H44.3431V45.2268H42.269V48.8587H41.2976V44.3605H45.3057H45.3144Z" fill="#224C62"/>
<path d="M50.1627 44.3605V48.8587H49.1912V45.2268H47.1172V48.8587H46.1458V44.3605H50.154H50.1627Z" fill="#224C62"/>
<path d="M53.5495 44.3692L55.3785 48.8674H54.4246L54.1445 48.1848H51.983L51.703 48.8674H50.749L52.5868 44.3692H53.5407H53.5495ZM52.333 47.336H53.8032L53.0681 45.5419L52.333 47.336Z" fill="#224C62"/>
<path d="M59.9642 44.3692C60.743 44.3692 61.3644 44.8942 61.3644 45.7169C61.3644 46.4782 60.7605 47.0471 59.9642 47.0471H58.5727V48.8674H57.6101V44.378H59.9642V44.3692ZM59.8416 46.1982C60.1217 46.1982 60.4193 46.0319 60.4193 45.7169C60.4193 45.4018 60.1392 45.2356 59.8416 45.2356H58.5727V46.1982H59.8416Z" fill="#224C62"/>
<path d="M64.1211 44.3692C65.53 44.3692 66.4839 45.4018 66.4839 46.6183C66.4839 47.9485 65.4163 48.8674 64.1211 48.8674C62.7208 48.8674 61.7582 47.8522 61.7582 46.6183C61.7582 45.3843 62.7996 44.3692 64.1211 44.3692ZM64.1211 48.0185C64.9787 48.0185 65.4776 47.3796 65.4776 46.6183C65.4776 45.7869 64.8912 45.2181 64.1211 45.2181C63.2634 45.2181 62.7646 45.8569 62.7646 46.6183C62.7646 47.3796 63.2984 48.0185 64.1211 48.0185Z" fill="#224C62"/>
<path d="M71.6209 47.2834C71.3409 48.2285 70.4308 48.8587 69.3719 48.8587C68.0854 48.8587 67.009 47.896 67.009 46.6095C67.009 45.3231 68.0329 44.3605 69.3719 44.3605C70.3958 44.3605 71.3146 44.9468 71.6209 45.9444L70.7021 46.2158C70.5358 45.6294 70.0195 45.2093 69.3719 45.2093C68.5667 45.2093 68.0154 45.8219 68.0154 46.6095C68.0154 47.3971 68.558 48.0097 69.3719 48.0097C70.0195 48.0097 70.5183 47.6247 70.7021 47.0034L71.6209 47.2834Z" fill="#224C62"/>
<path d="M76.7142 47.2834C76.4342 48.2285 75.524 48.8587 74.4651 48.8587C73.1786 48.8587 72.1023 47.896 72.1023 46.6095C72.1023 45.3231 73.1261 44.3605 74.4651 44.3605C75.489 44.3605 76.4079 44.9468 76.7142 45.9444L75.7953 46.2158C75.629 45.6294 75.1127 45.2093 74.4651 45.2093C73.66 45.2093 73.1087 45.8219 73.1087 46.6095C73.1087 47.3971 73.6512 48.0097 74.4651 48.0097C75.1127 48.0097 75.6115 47.6247 75.7953 47.0034L76.7142 47.2834Z" fill="#224C62"/>
<path d="M78.3332 44.3692V47.2222L81.1162 44.3692H81.5975V48.8587H80.6348V46.0057L77.8432 48.8587H77.3618V44.3692H78.3332Z" fill="#224C62"/>
<path d="M86.5157 44.3605V48.8587H85.5531V46.0057L82.7614 48.8587H82.2801V44.3605H83.2515V47.2134L86.0432 44.3605H86.5245H86.5157ZM85.518 43.5904L84.4854 44.6492L83.8378 44.0542L84.8704 42.9952L85.518 43.5904Z" fill="#224C62"/>
<path d="M91.7053 47.2834C91.4252 48.2285 90.515 48.8587 89.4561 48.8587C88.1697 48.8587 87.0933 47.896 87.0933 46.6095C87.0933 45.3231 88.1172 44.3605 89.4561 44.3605C90.48 44.3605 91.399 44.9468 91.7053 45.9444L90.7864 46.2158C90.6201 45.6294 90.1037 45.2093 89.4561 45.2093C88.651 45.2093 88.0997 45.8219 88.0997 46.6095C88.0997 47.3971 88.6423 48.0097 89.4561 48.0097C90.1037 48.0097 90.6026 47.6247 90.7864 47.0034L91.7053 47.2834Z" fill="#224C62"/>
<path d="M95.8885 44.3605L94.2082 46.3208L96.2472 48.8587H95.0921L93.3243 46.627V48.8587H92.3529V44.3605H93.3243V46.0669L94.7595 44.3605H95.8885Z" fill="#224C62"/>
<path d="M97.8749 44.3692V47.2222L100.658 44.3692H101.139V48.8587H100.177V46.0057L97.3849 48.8587H96.9035V44.3692H97.8749Z" fill="#224C62"/>
<path d="M106.329 44.3605L104.754 46.487L106.512 48.8674H105.375L104.185 47.2571L102.995 48.8674H101.866L103.625 46.487L102.049 44.3605H103.187L104.193 45.7169L105.2 44.3605H106.329Z" fill="#224C62"/>
<path d="M109.838 44.3692V47.2222L112.621 44.3692H113.102V48.8587H112.14V46.0057L109.348 48.8587H108.867V44.3692H109.838Z" fill="#224C62"/>
<path d="M117.959 44.3692V48.8674H116.988V46.8458H114.914V48.8674H113.951V44.3692H114.914V45.9707H116.988V44.3692H117.959Z" fill="#224C62"/>
<path d="M121.854 46.4345C122.256 46.6533 122.58 47.0209 122.58 47.5109C122.58 48.3248 121.976 48.8587 121.18 48.8587H118.826V44.3692H120.742C121.521 44.3692 122.142 44.8942 122.142 45.7169C122.142 45.9794 122.037 46.2245 121.854 46.4345ZM119.788 45.2093V46.1982H120.751C121.005 46.172 121.259 45.9969 121.259 45.7081C121.259 45.4193 120.987 45.2181 120.681 45.2181H119.78L119.788 45.2093ZM121.057 48.0185C121.337 48.0185 121.635 47.8435 121.635 47.5022C121.635 47.1871 121.364 46.9859 121.057 46.9859H119.788V48.0185H121.057Z" fill="#224C62"/>
<path d="M126.509 44.3692V45.2356H124.225V45.9795H125.932V46.8458H124.225V48.0097H126.509V48.8761H123.254V44.378H126.509V44.3692Z" fill="#224C62"/>
<path d="M131.55 47.2834C131.27 48.2285 130.36 48.8587 129.301 48.8587C128.015 48.8587 126.938 47.896 126.938 46.6095C126.938 45.3231 127.962 44.3605 129.301 44.3605C130.325 44.3605 131.244 44.9468 131.55 45.9444L130.631 46.2158C130.465 45.6294 129.949 45.2093 129.301 45.2093C128.496 45.2093 127.945 45.8219 127.945 46.6095C127.945 47.3971 128.487 48.0097 129.301 48.0097C129.949 48.0097 130.447 47.6247 130.631 47.0034L131.55 47.2834Z" fill="#224C62"/>
<path d="M135.961 44.3605V45.2268H134.438V48.8587H133.467V45.2268H131.944V44.3605H135.952H135.961Z" fill="#224C62"/>
<path d="M138.761 44.3692C140.17 44.3692 141.124 45.4018 141.124 46.6183C141.124 47.9485 140.056 48.8674 138.761 48.8674C137.361 48.8674 136.398 47.8522 136.398 46.6183C136.398 45.3843 137.44 44.3692 138.761 44.3692ZM138.761 48.0185C139.619 48.0185 140.118 47.3796 140.118 46.6183C140.118 45.7869 139.531 45.2181 138.761 45.2181C137.904 45.2181 137.405 45.8569 137.405 46.6183C137.405 47.3796 137.939 48.0185 138.761 48.0185Z" fill="#224C62"/>
<path d="M144.161 44.3692C144.94 44.3692 145.561 44.8942 145.561 45.7169C145.561 46.4782 144.957 47.0471 144.161 47.0471H142.769V48.8674H141.807V44.378H144.161V44.3692ZM144.038 46.1982C144.318 46.1982 144.616 46.0319 144.616 45.7169C144.616 45.4018 144.336 45.2356 144.038 45.2356H142.769V46.1982H144.038Z" fill="#224C62"/>
<path d="M148.326 44.3692C149.735 44.3692 150.689 45.4018 150.689 46.6183C150.689 47.9485 149.622 48.8674 148.326 48.8674C146.926 48.8674 145.964 47.8522 145.964 46.6183C145.964 45.3843 147.005 44.3692 148.326 44.3692ZM148.326 48.0185C149.184 48.0185 149.683 47.3796 149.683 46.6183C149.683 45.7869 149.097 45.2181 148.326 45.2181C147.469 45.2181 146.97 45.8569 146.97 46.6183C146.97 47.3796 147.504 48.0185 148.326 48.0185Z" fill="#224C62"/>
<path d="M154.426 46.4345C154.829 46.6533 155.152 47.0209 155.152 47.5109C155.152 48.3248 154.549 48.8587 153.752 48.8587H151.398V44.3692H153.315C154.094 44.3692 154.715 44.8942 154.715 45.7169C154.715 45.9794 154.61 46.2245 154.426 46.4345ZM152.361 45.2093V46.1982H153.323C153.577 46.172 153.831 45.9969 153.831 45.7081C153.831 45.4193 153.56 45.2181 153.253 45.2181H152.352L152.361 45.2093ZM153.63 48.0185C153.91 48.0185 154.207 47.8435 154.207 47.5022C154.207 47.1871 153.936 46.9859 153.63 46.9859H152.361V48.0185H153.63Z" fill="#224C62"/>
<path d="M25.9565 21.8958H20.6707V27.1816H25.9565V21.8958Z" fill="#224C62"/>
<path d="M46.6884 19.4542V20.6619H26.0265V15.3323L42.5665 15.3323C44.8419 15.3323 46.6796 17.1788 46.6796 19.4454L46.6884 19.4542Z" fill="#383D51"/>
<path d="M31.3561 20.6619H26.0265L26.0265 0H27.2342C29.5095 0 31.3473 1.84649 31.3473 4.11308L31.3473 20.6531L31.3561 20.6619Z" fill="#2E3242"/>
<path d="M26.0265 0.00865364H31.3561V15.341C31.3561 15.341 30.9622 20.6705 37.0706 20.6705H26.0352V0.00865364H26.0265Z" fill="#2E3242"/>
<path d="M0 29.6057L0 28.398H20.6619V33.7276H4.12185C1.8465 33.7276 0.00875988 31.881 0.00875988 29.6144L0 29.6057Z" fill="#383D51"/>
<path d="M15.3324 28.398H20.6619V49.0599H19.4542C17.1789 49.0599 15.3411 47.2133 15.3411 44.9467V28.4068L15.3324 28.398Z" fill="#2E3242"/>
<path d="M20.6619 49.0512H15.4111C15.4111 49.0512 15.3411 49.0161 15.3411 48.9811V33.7188C15.3411 33.7188 15.7349 28.3893 9.62647 28.3893H20.6619V49.0512Z" fill="#2E3242"/>
</svg>
