<svg width="42" height="44" viewBox="0 0 42 44" fill="none" xmlns="http://www.w3.org/2000/svg">
<path d="M23 19H19V24H23V19Z" fill="#4DADDD"/>
<path d="M41.9998 16.375V18H23V14L39.1376 14C39.5169 14.002 39.892 14.065 40.2414 14.1855C40.5908 14.3061 40.9075 14.4817 41.1735 14.7024C41.4394 14.9231 41.6494 15.1844 41.7912 15.4715C41.933 15.7585 42.0039 16.0656 41.9998 16.375Z" fill="#383D51"/>
<path d="M28 17.9827H23V0H25.0625C25.4483 0 25.8303 0.0705338 26.1866 0.207548C26.543 0.344563 26.8669 0.545368 27.1396 0.798538C27.4124 1.05171 27.6288 1.35226 27.7764 1.68304C27.924 2.01382 28 2.36834 28 2.72637L28 18V17.9827Z" fill="#2E3242"/>
<path d="M23 0H27.8251V13.3548C27.8251 13.3548 27.4692 18 33 18H23V0Z" fill="#2E3242"/>
<path d="M5.98543e-10 27.0625L5.98543e-10 25H19V30H2.86229C2.10148 29.995 1.37346 29.6834 0.837205 29.133C0.30095 28.5827 -1.54984e-05 27.8383 5.98543e-10 27.0625Z" fill="#383D51"/>
<path d="M14 25.0184H19V44H16.9375C16.1584 44 15.4113 43.6968 14.8604 43.1571C14.3095 42.6174 14 41.8854 14 41.1222V25V25.0184Z" fill="#2E3242"/>
<path d="M19 44H14.2413C14.2237 44 14.2068 43.9929 14.1944 43.9803C14.1819 43.9676 14.1749 43.9505 14.1749 43.9327V29.8985C14.1749 29.8985 14.5308 25 9 25H19V44Z" fill="#2E3242"/>
</svg>
